# Blender v3.4.0 OBJ File: ''
# www.blender.org
mtllib Stand.mtl
o Cube
v 10.000000 10.000000 -0.100000
v 10.000000 -10.000000 -0.100000
v 8.958560 8.958560 0.100000
v 8.958560 -8.958560 0.100000
v -10.000000 10.000000 -0.100000
v -10.000000 -10.000000 -0.100000
v -8.958560 8.958560 0.100000
v -8.958560 -8.958560 0.100000
v -10.000000 -10.000000 0.100000
v -10.000000 10.000000 0.100000
v 10.000000 10.000000 0.100000
v 10.000000 -10.000000 0.100000
v -10.000000 -10.000000 0.369938
v -10.000000 10.000000 0.369938
v 10.000000 10.000000 0.369938
v 10.000000 -10.000000 0.369938
v -8.958560 -8.958560 0.369938
v -8.958560 8.958560 0.369938
v 8.958560 8.958560 0.369938
v 8.958560 -8.958560 0.369938
vt 0.625000 0.500000
vt 0.875000 0.500000
vt 0.875000 0.750000
vt 0.625000 0.750000
vt 0.388018 0.763018
vt 0.611982 0.763018
vt 0.611982 0.986982
vt 0.388018 0.986982
vt 0.375000 0.000000
vt 0.625000 0.000000
vt 0.625000 0.250000
vt 0.375000 0.250000
vt 0.125000 0.500000
vt 0.375000 0.500000
vt 0.375000 0.750000
vt 0.125000 0.750000
vt 0.625000 0.750000
vt 0.375000 0.750000
vt 0.388018 0.986982
vt 0.388018 0.763018
vt 0.875000 0.750000
vt 0.125000 0.750000
vt 0.611982 0.986982
vt 0.625000 1.000000
vt 0.375000 1.000000
vt 0.611982 0.763018
vt 0.375000 0.000000
vt 0.625000 0.000000
vn 0.0000 1.0000 0.0000
vn 0.0000 0.0000 1.0000
vn -1.0000 0.0000 0.0000
vn 0.0000 -1.0000 0.0000
vn 1.0000 0.0000 0.0000
vn 0.0000 0.0000 -1.0000
usemtl Material
s off
f 1/1/1 5/2/1 10/3/1 11/4/1
f 4/5/2 3/6/2 7/7/2 8/8/2
f 9/9/3 10/10/3 5/11/3 6/12/3
f 6/13/4 2/14/4 12/15/4 9/16/4
f 2/14/5 1/1/5 11/4/5 12/15/5
f 6/12/6 5/11/6 1/1/6 2/14/6
f 12/15/5 11/4/5 15/17/5 16/18/5
f 4/5/1 8/8/1 17/19/1 20/20/1
f 11/4/1 10/3/1 14/21/1 15/17/1
f 9/16/4 12/15/4 16/18/4 13/22/4
f 17/19/2 18/23/2 14/24/2 13/25/2
f 19/26/2 20/20/2 16/18/2 15/17/2
f 18/23/2 19/26/2 15/17/2 14/24/2
f 20/20/2 17/19/2 13/25/2 16/18/2
f 3/6/3 4/5/3 20/20/3 19/26/3
f 7/7/4 3/6/4 19/26/4 18/23/4
f 10/10/3 9/9/3 13/27/3 14/28/3
f 8/8/5 7/7/5 18/23/5 17/19/5
